<mxfile host="app.diagrams.net" modified="2022-11-12T14:07:46.692Z" agent="5.0 (Windows NT 10.0; Win64; x64) AppleWebKit/537.36 (KHTML, like Gecko) Chrome/107.0.0.0 Safari/537.36 Edg/107.0.1418.35" etag="dKXjijrc9TQetU92SP_v" version="20.5.3" type="github">
  <diagram name="Page-1" id="5f0bae14-7c28-e335-631c-24af17079c00">
    <mxGraphModel dx="1258" dy="729" grid="1" gridSize="10" guides="1" tooltips="1" connect="1" arrows="1" fold="1" page="1" pageScale="1" pageWidth="1100" pageHeight="850" background="none" math="0" shadow="0">
      <root>
        <mxCell id="0" />
        <mxCell id="1" parent="0" />
        <mxCell id="ZI7r3MGRu3bru7jKsBjw-24" style="edgeStyle=orthogonalEdgeStyle;rounded=0;orthogonalLoop=1;jettySize=auto;html=1;entryX=0;entryY=0.5;entryDx=0;entryDy=0;entryPerimeter=0;" edge="1" parent="1" source="ZI7r3MGRu3bru7jKsBjw-1" target="ZI7r3MGRu3bru7jKsBjw-25">
          <mxGeometry relative="1" as="geometry">
            <mxPoint x="1025" y="785" as="targetPoint" />
          </mxGeometry>
        </mxCell>
        <mxCell id="ZI7r3MGRu3bru7jKsBjw-1" value="Desarrollador" style="shape=umlActor;verticalLabelPosition=bottom;verticalAlign=top;html=1;outlineConnect=0;" vertex="1" parent="1">
          <mxGeometry x="85" y="755" width="30" height="60" as="geometry" />
        </mxCell>
        <mxCell id="ZI7r3MGRu3bru7jKsBjw-6" style="edgeStyle=orthogonalEdgeStyle;rounded=0;orthogonalLoop=1;jettySize=auto;html=1;entryX=0.5;entryY=1;entryDx=0;entryDy=0;" edge="1" parent="1" source="ZI7r3MGRu3bru7jKsBjw-2" target="ZI7r3MGRu3bru7jKsBjw-3">
          <mxGeometry relative="1" as="geometry" />
        </mxCell>
        <mxCell id="ZI7r3MGRu3bru7jKsBjw-7" style="edgeStyle=orthogonalEdgeStyle;rounded=0;orthogonalLoop=1;jettySize=auto;html=1;" edge="1" parent="1" source="ZI7r3MGRu3bru7jKsBjw-2" target="ZI7r3MGRu3bru7jKsBjw-4">
          <mxGeometry relative="1" as="geometry" />
        </mxCell>
        <mxCell id="ZI7r3MGRu3bru7jKsBjw-8" style="edgeStyle=orthogonalEdgeStyle;rounded=0;orthogonalLoop=1;jettySize=auto;html=1;" edge="1" parent="1" source="ZI7r3MGRu3bru7jKsBjw-2" target="ZI7r3MGRu3bru7jKsBjw-5">
          <mxGeometry relative="1" as="geometry" />
        </mxCell>
        <mxCell id="ZI7r3MGRu3bru7jKsBjw-22" style="edgeStyle=orthogonalEdgeStyle;rounded=0;orthogonalLoop=1;jettySize=auto;html=1;" edge="1" parent="1" source="ZI7r3MGRu3bru7jKsBjw-2" target="ZI7r3MGRu3bru7jKsBjw-21">
          <mxGeometry relative="1" as="geometry">
            <Array as="points">
              <mxPoint x="150" y="690" />
            </Array>
          </mxGeometry>
        </mxCell>
        <mxCell id="ZI7r3MGRu3bru7jKsBjw-27" style="edgeStyle=orthogonalEdgeStyle;rounded=0;orthogonalLoop=1;jettySize=auto;html=1;entryX=0.667;entryY=1;entryDx=0;entryDy=0;entryPerimeter=0;" edge="1" parent="1" source="ZI7r3MGRu3bru7jKsBjw-2" target="ZI7r3MGRu3bru7jKsBjw-26">
          <mxGeometry relative="1" as="geometry">
            <Array as="points">
              <mxPoint x="230" y="740" />
              <mxPoint x="500" y="740" />
            </Array>
          </mxGeometry>
        </mxCell>
        <mxCell id="ZI7r3MGRu3bru7jKsBjw-2" value="Repositorio" style="rounded=0;whiteSpace=wrap;html=1;" vertex="1" parent="1">
          <mxGeometry x="170" y="660" width="120" height="60" as="geometry" />
        </mxCell>
        <mxCell id="ZI7r3MGRu3bru7jKsBjw-3" value="Github" style="ellipse;whiteSpace=wrap;html=1;aspect=fixed;" vertex="1" parent="1">
          <mxGeometry x="60" y="550" width="80" height="80" as="geometry" />
        </mxCell>
        <mxCell id="ZI7r3MGRu3bru7jKsBjw-4" value="Gitlab" style="ellipse;whiteSpace=wrap;html=1;aspect=fixed;" vertex="1" parent="1">
          <mxGeometry x="190" y="520" width="80" height="80" as="geometry" />
        </mxCell>
        <mxCell id="ZI7r3MGRu3bru7jKsBjw-5" value="Bitbucket" style="ellipse;whiteSpace=wrap;html=1;aspect=fixed;" vertex="1" parent="1">
          <mxGeometry x="320" y="550" width="80" height="80" as="geometry" />
        </mxCell>
        <mxCell id="ZI7r3MGRu3bru7jKsBjw-12" style="edgeStyle=orthogonalEdgeStyle;rounded=0;orthogonalLoop=1;jettySize=auto;html=1;entryX=0.5;entryY=1;entryDx=0;entryDy=0;" edge="1" parent="1" source="ZI7r3MGRu3bru7jKsBjw-15" target="ZI7r3MGRu3bru7jKsBjw-16">
          <mxGeometry relative="1" as="geometry" />
        </mxCell>
        <mxCell id="ZI7r3MGRu3bru7jKsBjw-13" style="edgeStyle=orthogonalEdgeStyle;rounded=0;orthogonalLoop=1;jettySize=auto;html=1;" edge="1" parent="1" source="ZI7r3MGRu3bru7jKsBjw-15" target="ZI7r3MGRu3bru7jKsBjw-17">
          <mxGeometry relative="1" as="geometry" />
        </mxCell>
        <mxCell id="ZI7r3MGRu3bru7jKsBjw-14" style="edgeStyle=orthogonalEdgeStyle;rounded=0;orthogonalLoop=1;jettySize=auto;html=1;" edge="1" parent="1" source="ZI7r3MGRu3bru7jKsBjw-15" target="ZI7r3MGRu3bru7jKsBjw-18">
          <mxGeometry relative="1" as="geometry" />
        </mxCell>
        <mxCell id="ZI7r3MGRu3bru7jKsBjw-20" style="edgeStyle=orthogonalEdgeStyle;rounded=0;orthogonalLoop=1;jettySize=auto;html=1;" edge="1" parent="1" source="ZI7r3MGRu3bru7jKsBjw-15" target="ZI7r3MGRu3bru7jKsBjw-19">
          <mxGeometry relative="1" as="geometry">
            <Array as="points">
              <mxPoint x="890" y="690" />
              <mxPoint x="890" y="420" />
            </Array>
          </mxGeometry>
        </mxCell>
        <mxCell id="ZI7r3MGRu3bru7jKsBjw-15" value="Cloud Provier" style="rounded=0;whiteSpace=wrap;html=1;" vertex="1" parent="1">
          <mxGeometry x="720" y="660" width="120" height="60" as="geometry" />
        </mxCell>
        <mxCell id="ZI7r3MGRu3bru7jKsBjw-29" style="edgeStyle=orthogonalEdgeStyle;rounded=0;orthogonalLoop=1;jettySize=auto;html=1;" edge="1" parent="1" source="ZI7r3MGRu3bru7jKsBjw-16">
          <mxGeometry relative="1" as="geometry">
            <mxPoint x="60" y="580" as="targetPoint" />
            <Array as="points">
              <mxPoint x="650" y="260" />
              <mxPoint x="20" y="260" />
              <mxPoint x="20" y="580" />
              <mxPoint x="60" y="580" />
            </Array>
          </mxGeometry>
        </mxCell>
        <mxCell id="ZI7r3MGRu3bru7jKsBjw-30" value="Integracion" style="edgeLabel;html=1;align=center;verticalAlign=middle;resizable=0;points=[];" vertex="1" connectable="0" parent="ZI7r3MGRu3bru7jKsBjw-29">
          <mxGeometry x="-0.1484" y="-2" relative="1" as="geometry">
            <mxPoint as="offset" />
          </mxGeometry>
        </mxCell>
        <mxCell id="ZI7r3MGRu3bru7jKsBjw-16" value="Azure" style="ellipse;whiteSpace=wrap;html=1;aspect=fixed;" vertex="1" parent="1">
          <mxGeometry x="610" y="550" width="80" height="80" as="geometry" />
        </mxCell>
        <mxCell id="ZI7r3MGRu3bru7jKsBjw-17" value="AWS" style="ellipse;whiteSpace=wrap;html=1;aspect=fixed;" vertex="1" parent="1">
          <mxGeometry x="740" y="460" width="80" height="80" as="geometry" />
        </mxCell>
        <mxCell id="ZI7r3MGRu3bru7jKsBjw-18" value="GCP" style="ellipse;whiteSpace=wrap;html=1;aspect=fixed;" vertex="1" parent="1">
          <mxGeometry x="950" y="550" width="80" height="80" as="geometry" />
        </mxCell>
        <mxCell id="ZI7r3MGRu3bru7jKsBjw-19" value="OCI, Redshift, Heroku, etc" style="rounded=0;whiteSpace=wrap;html=1;" vertex="1" parent="1">
          <mxGeometry x="920" y="390" width="120" height="60" as="geometry" />
        </mxCell>
        <mxCell id="ZI7r3MGRu3bru7jKsBjw-21" value="Azure DevOps, Google, etc." style="rounded=0;whiteSpace=wrap;html=1;" vertex="1" parent="1">
          <mxGeometry x="90" y="410" width="120" height="60" as="geometry" />
        </mxCell>
        <mxCell id="ZI7r3MGRu3bru7jKsBjw-25" value="Aplicacion" style="rounded=0;whiteSpace=wrap;html=1;" vertex="1" parent="1">
          <mxGeometry x="960" y="755" width="120" height="60" as="geometry" />
        </mxCell>
        <mxCell id="ZI7r3MGRu3bru7jKsBjw-28" style="edgeStyle=orthogonalEdgeStyle;rounded=0;orthogonalLoop=1;jettySize=auto;html=1;entryX=0.25;entryY=1;entryDx=0;entryDy=0;" edge="1" parent="1" source="ZI7r3MGRu3bru7jKsBjw-26" target="ZI7r3MGRu3bru7jKsBjw-15">
          <mxGeometry relative="1" as="geometry">
            <Array as="points">
              <mxPoint x="600" y="640" />
              <mxPoint x="600" y="740" />
              <mxPoint x="880" y="740" />
            </Array>
          </mxGeometry>
        </mxCell>
        <mxCell id="ZI7r3MGRu3bru7jKsBjw-26" value="Pipeline" style="shape=component;align=left;spacingLeft=36;rounded=0;shadow=0;comic=0;labelBackgroundColor=none;strokeWidth=1;fontFamily=Verdana;fontSize=12;html=1;" vertex="1" parent="1">
          <mxGeometry x="420" y="610" width="120" height="60" as="geometry" />
        </mxCell>
      </root>
    </mxGraphModel>
  </diagram>
</mxfile>
